<?xml version="1.0" standalone="no"?>
<!DOCTYPE svg PUBLIC "-//W3C//DTD SVG 20010904//EN"
 "http://www.w3.org/TR/2001/REC-SVG-20010904/DTD/svg10.dtd">
<svg version="1.0" xmlns="http://www.w3.org/2000/svg"
 width="512.000000pt" height="512.000000pt" viewBox="0 0 512.000000 512.000000"
 preserveAspectRatio="xMidYMid meet">
<metadata>
Created by potrace 1.11, written by Peter Selinger 2001-2013
</metadata>
<g transform="translate(0.000000,512.000000) scale(0.100000,-0.100000)"
fill="#000000" stroke="none">
<path d="M845 5105 c-143 -27 -302 -95 -419 -179 -61 -44 -165 -144 -208 -201
-12 -16 -25 -32 -28 -35 -26 -22 -109 -188 -140 -279 -51 -152 -50 -104 -47
-1881 1 -910 6 -1666 10 -1680 3 -14 9 -38 13 -55 20 -100 98 -271 169 -370
88 -123 245 -256 375 -317 119 -56 186 -77 315 -97 37 -6 697 -10 1690 -9
1576 0 1633 1 1725 20 271 55 531 237 669 468 33 56 76 150 100 218 51 150 50
112 48 1892 l-2 1655 -24 85 c-72 258 -220 469 -426 605 -123 81 -221 122
-375 155 -81 17 -171 18 -1730 18 -1315 0 -1659 -3 -1715 -13z m3145 -929
c364 -21 509 -237 426 -636 -23 -115 -120 -383 -212 -588 -13 -29 -24 -55 -24
-57 0 -12 -160 -330 -220 -439 -70 -126 -236 -402 -254 -423 -6 -7 -31 -42
-56 -78 -55 -81 -228 -301 -290 -370 -66 -73 -218 -225 -271 -270 -85 -75
-104 -90 -174 -141 -216 -157 -398 -233 -564 -236 -233 -3 -404 185 -542 596
-32 95 -104 353 -124 446 -10 47 -120 466 -128 490 -3 8 -29 89 -57 180 -97
313 -138 414 -191 475 -56 63 -128 69 -287 21 -91 -28 -186 -35 -219 -18 -32
17 -123 131 -123 154 0 8 50 56 111 108 60 51 116 98 122 104 19 18 189 168
216 191 14 11 41 34 60 51 49 42 183 142 260 193 93 63 162 97 254 126 141 45
260 33 346 -35 103 -82 204 -280 237 -470 3 -14 9 -41 14 -60 5 -19 18 -91 30
-160 26 -157 28 -165 35 -220 3 -25 8 -61 10 -80 3 -19 7 -57 10 -85 25 -246
45 -368 79 -481 66 -220 181 -357 311 -369 48 -5 119 32 176 92 94 99 254 391
320 583 27 80 33 114 37 216 5 141 -9 202 -61 261 -26 29 -75 60 -107 68 -52
12 -114 18 -196 17 l-102 0 26 66 c92 242 271 457 507 609 161 105 287 155
425 169 36 3 67 8 68 10 2 1 9 1 15 -1 7 -2 55 -6 107 -9z"/>
</g>
</svg>
